<?xml version="1.0" encoding="utf-8"?>
<!-- Generator: Adobe Illustrator 26.3.1, SVG Export Plug-In . SVG Version: 6.00 Build 0)  -->
<svg version="1.1" id="Layer_1" xmlns="http://www.w3.org/2000/svg" xmlns:xlink="http://www.w3.org/1999/xlink" x="0px" y="0px"
	 viewBox="0 0 708.7 708.7" style="enable-background:new 0 0 708.7 708.7;" xml:space="preserve">
<style type="text/css">
	.st0{opacity:1.000000e-02;fill:#F2F2F2;}
	.st1{fill:#ECECEC;stroke:#ECECEC;stroke-width:8;stroke-miterlimit:10;}
</style>
<path class="st0" d="M697.9,253c-2.9,40.1-16.3,76.3-41.8,107.9c-5.6,6.8-11.4,13.6-17.8,19.9c-90.9,90.9-182,181.8-273,272.7
	c-8,8-16.1,7.8-24.3-0.2c-17.8-17.8-35.7-35.3-53-53.2c-73.9-76.3-150-150.2-224.6-225.6c-27.5-27.7-44.2-61-51.3-99.4
	c-2.2-11.9-3.7-24.1-3.4-36.2c1.2-44,15.1-83.6,42.8-118.1c17.5-21.9,39.1-39.1,63.9-51.5c21.6-10.9,45-17.3,69.3-19.2
	c46.2-3.7,87,9.5,124.2,36c16,11.4,29.9,25.8,41.3,42c1.2,1,2.2,2,3.4,3.2c8-9.2,15.3-19,23.8-27.2c26.5-26,58.1-43.5,94.8-51
	c14.6-2.9,29.4-4.9,44.2-3.6c39.1,2.9,74.9,15.3,106,39.1c31.4,23.8,53.2,54.9,65.9,92.1C696.4,203.9,699.6,228.5,697.9,253z"/>
<g>
	<path class="st1" d="M703.8,207c-5.6-29.1-16.8-55.9-34.2-80.1C650,99.7,626,77.8,596.2,62.6C558.7,43.5,518.9,34.9,476.5,41
		c-20.7,2.8-40.5,8.6-59.4,17.5c-22.4,10.5-42.2,24.5-59.2,42.6c-2.1,2.1-3.3,4-6.5,0.7c-18.9-18.9-39.8-34.5-64.3-45.2
		c-24.4-11-50.1-16.8-76.9-17.9c-14.9-0.7-29.8,1.4-44.5,4.4c-37.3,7.7-69.9,24.5-97.8,49.8c-21.2,19.1-37.7,41.9-49.4,68
		c-10,22.8-16.3,46.6-17.5,71.7v26.8c0.2,10.9,2.1,21.7,4.4,32.8c8.4,36.3,24.5,68.9,50.8,95.5c90.4,91.1,181.4,181.4,272,272.3
		c12.6,12.8,36.8,14.2,51,0c88.7-89,177.7-178,266.7-266.7c18.4-18.4,33.1-39.1,43.5-63.1C707,290.7,711.9,249.4,703.8,207z
		 M683.5,257.3c-2.8,38.4-15.6,73.1-40.1,103.4c-5.4,6.5-10.9,13-17,19.1C539.3,467,452,554.1,364.9,641.2
		c-7.7,7.7-15.4,7.5-23.3-0.2c-17-17-34.2-33.8-50.8-51C220,516.8,147.1,446,75.6,373.8c-26.3-26.5-42.4-58.5-49.1-95.3
		c-2.1-11.4-3.5-23.1-3.3-34.7c1.2-42.2,14.4-80.1,41-113.2c16.8-21,37.5-37.5,61.3-49.4c20.7-10.5,43.1-16.5,66.4-18.4
		c44.2-3.5,83.4,9.1,119,34.5c15.4,10.9,28.7,24.7,39.6,40.3c1.2,0.9,2.1,1.9,3.3,3c7.7-8.9,14.7-18.2,22.8-26.1
		c25.4-24.9,55.7-41.7,90.8-48.9c14-2.8,28.2-4.7,42.4-3.5c37.5,2.8,71.7,14.7,101.5,37.5c30,22.8,51,52.6,63.1,88.3
		C682.1,210.3,685.2,233.8,683.5,257.3z"/>
</g>
</svg>
