<?xml version="1.0" encoding="utf-8"?>
<!-- Generator: Adobe Illustrator 26.3.1, SVG Export Plug-In . SVG Version: 6.00 Build 0)  -->
<svg version="1.1" id="Layer_1" xmlns="http://www.w3.org/2000/svg" xmlns:xlink="http://www.w3.org/1999/xlink" x="0px" y="0px"
	 viewBox="0 0 708.7 708.7" style="enable-background:new 0 0 708.7 708.7;" xml:space="preserve">
<style type="text/css">
	.st0{opacity:1.000000e-02;fill:#F2F2F2;}
	.st1{fill:#ECECEC;stroke:#ECECEC;stroke-width:8;stroke-miterlimit:10;}
</style>
<path class="st0" d="M692.6,254.6c-2.9,39.5-16,75.2-41.2,106.3c-5.5,6.7-11.3,13.4-17.5,19.6C544.5,470,454.7,559.5,365.2,649
	c-7.9,7.9-15.8,7.7-23.9-0.2c-17.5-17.5-35.2-34.7-52.2-52.4C216.4,521.2,141.4,448.4,68,374.2c-27-27.3-43.6-60.1-50.5-97.9
	c-2.2-11.7-3.6-23.7-3.3-35.7c1.2-43.3,14.8-82.3,42.1-116.3c17.2-21.5,38.5-38.5,62.9-50.7c21.3-10.8,44.3-17,68.2-18.9
	c45.5-3.6,85.7,9.3,122.3,35.4c15.8,11.2,29.4,25.4,40.7,41.4c1.2,1,2.1,1.9,3.3,3.1c7.9-9.1,15.1-18.7,23.4-26.8
	c26.1-25.6,57.2-42.8,93.3-50.3c14.4-2.9,29-4.8,43.6-3.6c38.5,2.9,73.7,15.1,104.3,38.5c30.9,23.4,52.4,54.1,64.9,90.7
	C691.2,206.2,694.3,230.4,692.6,254.6z"/>
<g>
	<path class="st1" d="M698.4,209.3c-5.5-28.7-16.5-55-33.7-78.9c-19.3-26.8-42.9-48.4-72.2-63.3c-36.9-18.8-76.1-27.3-117.9-21.3
		c-20.4,2.8-39.9,8.5-58.5,17.2c-22,10.3-41.5,24.1-58.3,42c-2.1,2.1-3.2,3.9-6.4,0.7c-18.6-18.6-39.2-33.9-63.3-44.5
		c-24.1-10.8-49.3-16.5-75.7-17.7c-14.7-0.7-29.4,1.4-43.8,4.4C132,55.4,99.9,71.9,72.3,96.9c-20.9,18.8-37.2,41.3-48.6,67
		c-9.9,22.5-16,45.9-17.2,70.6v26.4c0.2,10.8,2.1,21.3,4.4,32.3c8.3,35.8,24.1,67.9,50,94c89,89.7,178.7,178.7,267.9,268.1
		c12.4,12.6,36.2,14,50.2,0c87.4-87.6,175-175.2,262.6-262.6c18.1-18.1,32.6-38.5,42.9-62.2C701.6,291.6,706.4,251,698.4,209.3z
		 M678.5,258.8c-2.8,37.8-15.4,72-39.4,101.8c-5.3,6.4-10.8,12.8-16.7,18.8C536.5,465.2,450.5,551,364.7,636.8
		c-7.6,7.6-15.1,7.3-22.9-0.2c-16.7-16.7-33.7-33.3-50-50.2c-69.7-72-141.5-141.7-211.9-212.8c-25.9-26.1-41.7-57.6-48.4-93.8
		c-2.1-11.2-3.4-22.7-3.2-34.2c1.1-41.5,14.2-78.9,40.4-111.5c16.5-20.6,36.9-36.9,60.3-48.6c20.4-10.3,42.4-16.3,65.4-18.1
		c43.6-3.4,82.1,8.9,117.2,33.9c15.1,10.8,28.2,24.3,39,39.7c1.1,0.9,2.1,1.8,3.2,3c7.6-8.7,14.4-17.9,22.5-25.7
		c25-24.5,54.8-41,89.4-48.2c13.8-2.7,27.7-4.6,41.7-3.4c36.9,2.7,70.6,14.4,100,36.9c29.6,22.5,50.2,51.8,62.1,86.9
		C677.1,212.5,680.1,235.7,678.5,258.8z"/>
</g>
</svg>
